HIERARCHY
ROOT Hips
{
	OFFSET 0.000000 0.000000 0.000000
	CHANNELS 6 Xposition Yposition Zposition Zrotation Yrotation Xrotation 
	JOINT LHipJoint
	{
		OFFSET 0.000000 0.000000 0.000000
		CHANNELS 3 Zrotation Yrotation Xrotation
		JOINT LeftUpLeg
		{
			OFFSET 1.363060 -1.794630 0.839290
			CHANNELS 3 Zrotation Yrotation Xrotation
			JOINT LeftLeg
			{
				OFFSET 2.448110 -6.726130 0.000000
				CHANNELS 3 Zrotation Yrotation Xrotation
				JOINT LeftFoot
				{
					OFFSET 2.562200 -7.039590 0.000000
					CHANNELS 3 Zrotation Yrotation Xrotation
					JOINT LeftToeBase
					{
						OFFSET 0.157640 -0.433110 2.322550
						CHANNELS 3 Zrotation Yrotation Xrotation
						End Site
						{
							OFFSET 0.000000 0.000000 0.000000
						}
					}
				}
			}
		}
	}
	JOINT RHipJoint
	{
		OFFSET 0.000000 0.000000 0.000000
		CHANNELS 3 Zrotation Yrotation Xrotation
		JOINT RightUpLeg
		{
			OFFSET -1.305520 -1.794630 0.839290
			CHANNELS 3 Zrotation Yrotation Xrotation
			JOINT RightLeg
			{
				OFFSET -2.542530 -6.985550 0.000000
				CHANNELS 3 Zrotation Yrotation Xrotation
				JOINT RightFoot
				{
					OFFSET -2.568260 -7.056230 0.000000
					CHANNELS 3 Zrotation Yrotation Xrotation
					JOINT RightToeBase
					{
						OFFSET -0.164730 -0.452590 2.363150
						CHANNELS 3 Zrotation Yrotation Xrotation
						End Site
						{
							OFFSET 0.000000 0.000000 0.000000
						}
					}
				}
			}
		}
	}
}
MOTION
Frames: 30
Frame Time: 0.008333
2.009516 16.771841 3.153933 12.342604 -37.803129 22.796960 -6.559142 0.155591 8.750519 -0.991923 -27.429915 -48.699729 -2.161196 -1.068824 12.303178 0.254635 3.765056 6.391501 1.723700 -0.000001 -56.027400 13.775884 0.372352 -4.614904 -5.674469 -37.918487 -12.911664 2.113153 0.720548 -4.913917 -2.214918 -23.895555 15.843457 -11.977200 -0.000001 -71.926400
2.011433 16.771442 3.157160 12.184395 -38.086279 22.891642 -6.580625 0.170983 8.727996 -0.964328 -27.216161 -48.776532 -2.134320 -1.058990 12.502150 0.276958 3.824450 6.203889 1.721800 0.000000 -56.062400 13.773797 0.343631 -4.534713 -5.561335 -37.587429 -12.926140 2.085698 0.743653 -5.070500 -2.291768 -23.950287 15.933006 -11.978300 0.000001 -71.937900
2.014586 16.773723 3.160247 12.001082 -38.423551 22.973522 -6.612248 0.188808 8.700486 -0.944307 -26.956475 -48.810752 -2.105470 -1.048198 12.686343 0.301107 3.899378 6.039858 1.725200 0.000000 -56.110501 13.766485 0.309095 -4.456385 -5.436067 -37.282647 -12.938507 2.065993 0.768084 -5.259266 -2.376927 -23.951386 16.102704 -11.960300 -0.000000 -71.950400
2.019126 16.778360 3.163212 11.789586 -38.809113 23.047658 -6.652998 0.208105 8.667932 -0.926222 -26.656851 -48.808436 -2.073938 -1.036565 12.859134 0.327463 3.990760 5.894624 1.733600 -0.000000 -56.170300 13.753368 0.270234 -4.374507 -5.296853 -36.971809 -12.961399 2.047572 0.791426 -5.445892 -2.459992 -23.953887 16.330131 -11.963200 0.000000 -72.023500
2.024938 16.785007 3.166101 11.555279 -39.237072 23.106877 -6.698888 0.230498 8.634432 -0.906838 -26.333222 -48.765382 -2.039643 -1.024817 13.018578 0.357475 4.107284 5.763387 1.748900 0.000001 -56.235700 13.738020 0.226497 -4.297458 -5.151571 -36.700324 -12.972826 2.037893 0.816646 -5.666917 -2.551307 -23.900324 16.622027 -11.939400 0.000000 -72.069100
2.032083 16.793313 3.168836 11.298553 -39.703857 23.157210 -6.749904 0.253774 8.597884 -0.880109 -25.990298 -48.689291 -2.001718 -1.012906 13.169649 0.391401 4.248327 5.640688 1.770400 0.000000 -56.305200 13.719061 0.180252 -4.217051 -4.999776 -36.415991 -12.987447 2.026928 0.840779 -5.881021 -2.640473 -23.864917 16.949914 -11.940700 -0.000000 -72.163500
2.040511 16.802970 3.171328 11.024138 -40.206706 23.194782 -6.804241 0.277559 8.559142 -0.842987 -25.639094 -48.579132 -1.959789 -1.001141 13.313024 0.430197 4.418758 5.522093 1.798800 -0.000001 -56.375900 13.697824 0.132099 -4.136664 -4.848064 -36.130827 -12.992500 2.016411 0.865164 -6.103851 -2.733166 -23.828647 17.305928 -11.946500 -0.000000 -72.241301
2.050120 16.813651 3.173426 10.740101 -40.744975 23.214940 -6.861185 0.300786 8.517956 -0.793868 -25.288879 -48.434508 -1.913492 -0.989571 13.450536 0.474689 4.622527 5.403923 1.834600 -0.000001 -56.446600 13.674811 0.083335 -4.059002 -4.704075 -35.851590 -12.977141 2.006579 0.890748 -6.350236 -2.835493 -23.782790 17.691172 -11.945200 -0.000000 -72.298100
2.060701 16.825085 3.175022 10.453389 -41.318391 23.213768 -6.919583 0.323221 8.475153 -0.732207 -24.946714 -48.255548 -1.862951 -0.978379 13.583671 0.525281 4.861502 5.283081 1.877900 -0.000001 -56.515000 13.651238 0.034349 -3.986638 -4.571963 -35.591587 -12.932496 1.999191 0.919056 -6.639986 -2.953939 -23.709845 18.107425 -11.918700 -0.000000 -72.310300
2.072135 16.837080 3.175991 10.161289 -41.926504 23.199986 -6.980959 0.342400 8.426942 -0.654618 -24.607682 -48.049623 -1.807975 -0.967179 13.718312 0.580895 5.127528 5.156485 1.925800 0.000000 -56.584700 13.624655 -0.013001 -3.906496 -4.448845 -35.276081 -12.881762 1.981180 0.946130 -6.912610 -3.074798 -23.705949 18.511074 -11.935300 0.000000 -72.330800
2.084172 16.849451 3.176151 9.870269 -42.568380 23.168203 -7.044923 0.357918 8.372739 -0.564622 -24.273890 -47.813381 -1.749386 -0.955893 13.855418 0.641123 5.418166 5.022250 1.977300 -0.000001 -56.655499 13.595522 -0.058053 -3.821006 -4.339447 -34.915346 -12.818783 1.953716 0.972510 -7.175775 -3.201400 -23.760952 18.898736 -11.984100 0.000000 -72.331000
2.096544 16.861938 3.175413 9.588690 -43.245650 23.112189 -7.110437 0.370684 8.314783 -0.467097 -23.948344 -47.546820 -1.688265 -0.944645 13.995290 0.705799 5.733077 4.879761 2.032200 0.000000 -56.726300 13.565571 -0.101441 -3.736418 -4.245788 -34.550902 -12.731125 1.923537 1.001375 -7.472850 -3.346746 -23.824805 19.293626 -12.025500 0.000000 -72.304400
2.109130 16.874385 3.173623 9.319366 -43.938503 23.028698 -7.175160 0.375902 8.251931 -0.368378 -23.633165 -47.247898 -1.627231 -0.934798 14.140713 0.773027 6.066032 4.729218 2.089100 -0.000000 -56.796000 13.518847 -0.115569 -3.653005 -4.173426 -34.187516 -12.860817 1.899944 0.990569 -7.255366 -3.396998 -23.862978 19.346539 -12.037500 0.000000 -72.217500
2.121647 16.886712 3.170689 9.060390 -44.658458 22.924193 -7.242628 0.376089 8.181198 -0.271017 -23.313813 -46.920439 -1.566221 -0.924742 14.293309 0.841407 6.404660 4.568628 2.143900 0.000000 -56.867200 13.465885 -0.120516 -3.562095 -4.113676 -33.772611 -13.043528 1.865892 0.969335 -6.892749 -3.425703 -23.983135 19.294312 -12.097800 -0.000000 -72.154201
2.134021 16.898721 3.166558 8.815760 -45.407502 22.792485 -7.312349 0.373677 8.105024 -0.183003 -22.988763 -46.563684 -1.506484 -0.914236 14.452100 0.910495 6.746235 4.396993 2.195800 -0.000000 -56.937600 13.410915 -0.122175 -3.471266 -4.065607 -33.354353 -13.225922 1.828167 0.947854 -6.519078 -3.460386 -24.132076 19.215542 -12.165400 0.000000 -72.056800
2.146169 16.910283 3.161205 8.588464 -46.182667 22.631800 -7.383772 0.369580 8.024457 -0.110943 -22.655080 -46.179332 -1.449402 -0.903349 14.616662 0.979444 7.086489 4.214135 2.243600 -0.000000 -57.004901 13.354139 -0.120039 -3.382474 -4.027904 -32.950091 -13.414981 1.789582 0.925640 -6.128645 -3.499016 -24.295683 19.109874 -12.231700 -0.000000 -71.953900
2.158052 16.921289 3.154620 8.377434 -46.980049 22.442232 -7.457436 0.364341 7.938007 -0.060072 -22.306674 -45.766726 -1.395905 -0.891581 14.787237 1.047026 7.418073 4.019828 2.285200 -0.000001 -57.068500 13.296308 -0.116203 -3.294885 -3.999722 -32.551175 -13.593059 1.747805 0.904993 -5.750215 -3.543111 -24.492533 18.992796 -12.312801 0.000000 -71.814900
2.169642 16.931483 3.147057 8.185858 -47.797201 22.226998 -7.531915 0.359700 7.851345 -0.033840 -21.943161 -45.339925 -1.346938 -0.879629 14.965467 1.113273 7.741687 3.813852 2.321099 0.000000 -57.124700 13.236127 -0.107491 -3.211904 -3.974191 -32.201803 -13.805444 1.712195 0.881711 -5.328795 -3.586150 -24.667854 18.845825 -12.370200 0.000000 -71.745301
2.180961 16.940876 3.138383 8.014160 -48.628415 21.981633 -7.607378 0.355987 7.760949 -0.037948 -21.561546 -44.891585 -1.303132 -0.866771 15.149945 1.177320 8.052206 3.596582 2.349900 -0.000000 -57.172600 13.175565 -0.096735 -3.133488 -3.957794 -31.884495 -14.013704 1.678333 0.859106 -4.911388 -3.629447 -24.843051 18.686667 -12.422500 -0.000000 -71.646800
2.192194 16.949473 3.128656 7.857137 -49.469790 21.710076 -7.684764 0.353480 7.665269 -0.072577 -21.156242 -44.425118 -1.264332 -0.852217 15.344120 1.238455 8.344285 3.367329 2.369800 -0.000000 -57.214000 13.114810 -0.086381 -3.057977 -3.949088 -31.583102 -14.199224 1.643472 0.839399 -4.524935 -3.674273 -25.035169 18.529950 -12.484600 -0.000000 -71.485699
2.203319 16.956998 3.118247 7.718953 -50.320952 21.419280 -7.762346 0.353709 7.570896 -0.137580 -20.729279 -43.961460 -1.230769 -0.836967 15.549585 1.297538 8.623237 3.127840 2.383200 0.000000 -57.244800 13.052692 -0.072794 -2.985577 -3.941965 -31.329865 -14.414923 1.615262 0.817794 -4.106906 -3.715410 -25.196560 18.360291 -12.523700 -0.000000 -71.439100
2.214447 16.963698 3.106875 7.598457 -51.174314 21.100265 -7.840888 0.356206 7.470874 -0.235744 -20.279164 -43.483406 -1.202368 -0.819540 15.765759 1.353574 8.883318 2.878882 2.388100 -0.000001 -57.267399 12.991665 -0.060031 -2.918171 -3.949993 -31.096529 -14.595703 1.587378 0.798781 -3.723795 -3.753509 -25.348140 18.193186 -12.557400 0.000000 -71.326700
2.225678 16.969374 3.094973 7.494099 -52.032807 20.767064 -7.919828 0.361820 7.371046 -0.361830 -19.804629 -43.016289 -1.178638 -0.800792 15.995560 1.407408 9.128592 2.621667 2.386500 0.000000 -57.280600 12.930125 -0.046331 -2.851076 -3.963238 -30.889252 -14.789437 1.563720 0.779162 -3.328462 -3.786535 -25.466604 18.022758 -12.570700 0.000000 -71.273100
2.237088 16.974254 3.082269 7.406722 -52.890770 20.411170 -7.999352 0.370156 7.266397 -0.516545 -19.306453 -42.546153 -1.159449 -0.779758 16.236787 1.458435 9.356636 2.358780 2.377700 -0.000000 -57.285301 12.870088 -0.034036 -2.786359 -3.994002 -30.690024 -14.950363 1.540184 0.761482 -2.962406 -3.814103 -25.559789 17.857934 -12.571200 0.000001 -71.201500
2.248659 16.978309 3.068859 7.336910 -53.748612 20.036643 -8.079163 0.381411 7.158269 -0.696121 -18.784852 -42.079854 -1.144523 -0.756828 16.487487 1.506953 9.569628 2.092358 2.362900 0.000001 -57.281199 12.811576 -0.023101 -2.721757 -4.042176 -30.493543 -15.088069 1.517183 0.744817 -2.614309 -3.834935 -25.617035 17.698122 -12.553200 0.000001 -71.161301
2.260533 16.981716 3.054712 7.281534 -54.605518 19.644853 -8.159548 0.395300 7.045431 -0.896765 -18.238960 -41.615322 -1.133544 -0.731957 16.744524 1.552750 9.766981 1.824055 2.342200 0.000001 -57.269099 12.754954 -0.014974 -2.656399 -4.109733 -30.287704 -15.190862 1.493409 0.729812 -2.295019 -3.848385 -25.637093 17.546450 -12.517300 -0.000000 -71.126700
2.272666 16.984540 3.039833 7.241858 -55.461191 19.235634 -8.240122 0.411776 6.928073 -1.115010 -17.670479 -41.150921 -1.126426 -0.705692 17.001475 1.595966 9.950880 1.556369 2.316900 -0.000000 -57.247200 12.700763 -0.010058 -2.589317 -4.198911 -30.067154 -15.257208 1.468601 0.716211 -2.004774 -3.853372 -25.612861 17.403804 -12.460200 -0.000000 -71.119100
2.285028 16.986854 3.024166 7.218854 -56.315282 18.808900 -8.320650 0.430777 6.806250 -1.347201 -17.080453 -40.683467 -1.123137 -0.678676 17.250747 1.636671 10.123079 1.291397 2.287800 0.000000 -57.214300 12.649464 -0.009072 -2.519840 -4.310799 -29.827409 -15.284008 1.442562 0.703986 -1.746429 -3.849001 -25.539261 17.271450 -12.379999 -0.000000 -71.144700
2.297636 16.988773 3.007673 7.210748 -57.167404 18.365216 -8.401034 0.452026 6.680043 -1.588932 -16.470356 -40.208926 -1.123530 -0.651598 17.484081 1.674902 10.284998 1.030647 2.255699 0.000000 -57.168700 12.601227 -0.012886 -2.447327 -4.444865 -29.563548 -15.267754 1.414898 0.693339 -1.525865 -3.834983 -25.415996 17.153181 -12.278100 -0.000000 -71.211800
2.310510 16.990355 2.990319 7.218545 -58.015863 17.902702 -8.480768 0.475327 6.549790 -1.837083 -15.843921 -39.721774 -1.127585 -0.625293 17.692286 1.710811 10.438908 0.775515 2.221500 0.000000 -57.106600 12.556371 -0.021581 -2.372801 -4.602107 -29.279064 -15.206191 1.386259 0.684071 -1.345759 -3.810285 -25.236919 17.048926 -12.151200 0.000000 -71.321401
